<svg width="62" height="50" viewBox="0 0 62 50" fill="none" xmlns="http://www.w3.org/2000/svg">
<g clip-path="url(#clip0_2702_4171)">
<path d="M7.74996 6.25H54.25C54.9351 6.25 55.5922 6.46949 56.0767 6.86019C56.5611 7.25089 56.8333 7.7808 56.8333 8.33333V41.6667C56.8333 42.2192 56.5611 42.7491 56.0767 43.1398C55.5922 43.5305 54.9351 43.75 54.25 43.75H7.74996C7.06482 43.75 6.40774 43.5305 5.92327 43.1398C5.4388 42.7491 5.16663 42.2192 5.16663 41.6667V8.33333C5.16663 7.7808 5.4388 7.25089 5.92327 6.86019C6.40774 6.46949 7.06482 6.25 7.74996 6.25V6.25ZM51.6666 15.0792L31.186 29.8708L10.3333 15.0333V39.5833H51.6666V15.0792ZM11.6534 10.4167L31.1575 24.2958L50.3801 10.4167H11.6534Z" fill="black"/>
</g>
<defs>
<clipPath id="clip0_2702_4171">
<rect width="62" height="50" fill="white"/>
</clipPath>
</defs>
</svg>
