<svg width="339" height="13" viewBox="0 0 339 13" fill="none" xmlns="http://www.w3.org/2000/svg">
<line x1="96.5928" y1="0.959961" x2="96.5928" y2="12.5" stroke="black" stroke-linecap="round" stroke-linejoin="round"/>
<line x1="241.338" y1="0.959961" x2="241.338" y2="12.5" stroke="black" stroke-linecap="round" stroke-linejoin="round"/>
<line x1="144.841" y1="0.959961" x2="144.841" y2="12.5" stroke="black" stroke-linecap="round" stroke-linejoin="round"/>
<line x1="289.586" y1="0.959961" x2="289.586" y2="12.5" stroke="black" stroke-linecap="round" stroke-linejoin="round"/>
<line x1="337.788" y1="0.959961" x2="337.788" y2="12.5" stroke="black" stroke-linecap="round" stroke-linejoin="round"/>
<line x1="193.089" y1="0.959961" x2="193.089" y2="12.5" stroke="black" stroke-linecap="round" stroke-linejoin="round"/>
<line x1="48.3442" y1="0.959961" x2="48.3442" y2="12.5" stroke="black" stroke-linecap="round" stroke-linejoin="round"/>
<line x1="0.559814" y1="0.959961" x2="0.559814" y2="12.5" stroke="black" stroke-linecap="round" stroke-linejoin="round"/>
<line x1="108.655" y1="6.65991" x2="108.655" y2="12.4999" stroke="black" stroke-linecap="round" stroke-linejoin="round"/>
<line x1="253.4" y1="6.65991" x2="253.4" y2="12.4999" stroke="black" stroke-linecap="round" stroke-linejoin="round"/>
<line x1="301.602" y1="6.65991" x2="301.602" y2="12.4999" stroke="black" stroke-linecap="round" stroke-linejoin="round"/>
<line x1="156.903" y1="6.65991" x2="156.903" y2="12.4999" stroke="black" stroke-linecap="round" stroke-linejoin="round"/>
<line x1="205.151" y1="6.65991" x2="205.151" y2="12.4999" stroke="black" stroke-linecap="round" stroke-linejoin="round"/>
<line x1="60.4065" y1="6.65991" x2="60.4065" y2="12.4999" stroke="black" stroke-linecap="round" stroke-linejoin="round"/>
<line x1="12.6221" y1="6.65991" x2="12.6221" y2="12.4999" stroke="black" stroke-linecap="round" stroke-linejoin="round"/>
<line x1="120.717" y1="4.37988" x2="120.717" y2="12.4999" stroke="black" stroke-linecap="round" stroke-linejoin="round"/>
<line x1="265.462" y1="4.37988" x2="265.462" y2="12.4999" stroke="black" stroke-linecap="round" stroke-linejoin="round"/>
<line x1="313.664" y1="4.37988" x2="313.664" y2="12.4999" stroke="black" stroke-linecap="round" stroke-linejoin="round"/>
<line x1="168.965" y1="4.37988" x2="168.965" y2="12.4999" stroke="black" stroke-linecap="round" stroke-linejoin="round"/>
<line x1="217.214" y1="4.37988" x2="217.214" y2="12.4999" stroke="black" stroke-linecap="round" stroke-linejoin="round"/>
<line x1="72.4685" y1="4.37988" x2="72.4685" y2="12.4999" stroke="black" stroke-linecap="round" stroke-linejoin="round"/>
<line x1="24.6841" y1="4.37988" x2="24.6841" y2="12.4999" stroke="black" stroke-linecap="round" stroke-linejoin="round"/>
<line x1="132.779" y1="6.65991" x2="132.779" y2="12.4999" stroke="black" stroke-linecap="round" stroke-linejoin="round"/>
<line x1="277.524" y1="6.65991" x2="277.524" y2="12.4999" stroke="black" stroke-linecap="round" stroke-linejoin="round"/>
<line x1="325.726" y1="6.65991" x2="325.726" y2="12.4999" stroke="black" stroke-linecap="round" stroke-linejoin="round"/>
<line x1="181.027" y1="6.65991" x2="181.027" y2="12.4999" stroke="black" stroke-linecap="round" stroke-linejoin="round"/>
<line x1="229.276" y1="6.65991" x2="229.276" y2="12.4999" stroke="black" stroke-linecap="round" stroke-linejoin="round"/>
<line x1="84.5305" y1="6.65991" x2="84.5305" y2="12.4999" stroke="black" stroke-linecap="round" stroke-linejoin="round"/>
<line x1="36.7461" y1="6.65991" x2="36.7461" y2="12.4999" stroke="black" stroke-linecap="round" stroke-linejoin="round"/>
</svg>
